<?xml version="1.0" standalone="no"?>
<!DOCTYPE svg PUBLIC "-//W3C//DTD SVG 20010904//EN"
 "http://www.w3.org/TR/2001/REC-SVG-20010904/DTD/svg10.dtd">
<svg version="1.0" xmlns="http://www.w3.org/2000/svg"
 width="379.000000pt" height="600.000000pt" viewBox="0 0 379.000000 600.000000"
 preserveAspectRatio="xMidYMid meet">
<g transform="translate(0.000000,600.000000) scale(0.100000,-0.100000)"
fill="#000000" stroke="none">
<path d="M1523 5770 c-81 -21 -117 -38 -162 -75 -31 -26 -31 -26 -78 -11 -123
40 -256 43 -408 9 -222 -50 -414 -185 -490 -344 -56 -120 -58 -162 -24 -533
16 -176 32 -382 35 -456 6 -129 5 -141 -27 -275 -31 -130 -33 -152 -33 -305 1
-202 14 -261 109 -459 35 -75 69 -158 74 -186 11 -52 31 -294 81 -960 131
-1731 114 -1543 140 -1598 107 -221 514 -348 1125 -348 617 -1 1034 121 1142
334 23 46 28 77 49 321 25 287 79 934 114 1376 39 492 79 885 93 925 8 22 37
85 65 140 63 127 99 241 112 358 14 119 5 220 -33 387 -45 194 -43 301 19 914
23 227 11 294 -73 387 -45 49 -115 86 -191 100 -50 10 -65 19 -124 75 -79 74
-140 108 -246 135 -84 21 -246 26 -321 8 -38 -8 -47 -7 -65 10 -35 32 -123 72
-187 84 -78 14 -183 -3 -255 -42 l-52 -28 -59 28 c-107 51 -212 60 -330 29z
m267 -159 c25 -13 64 -39 87 -57 23 -19 46 -34 51 -34 5 0 22 16 37 36 39 50
114 84 190 84 75 0 130 -25 181 -79 43 -45 56 -48 127 -26 207 62 453 -13 539
-166 l22 -39 65 0 c79 0 122 -19 165 -73 25 -31 30 -47 31 -90 l0 -52 -244 -5
-243 -5 -19 -60 c-23 -76 -65 -126 -131 -159 -115 -57 -239 -21 -326 95 -6 8
-18 40 -25 70 l-14 54 -894 5 -894 5 -3 48 c-8 127 122 277 306 352 178 72
354 73 500 2 l63 -31 37 40 c54 60 76 75 134 96 73 26 195 20 258 -11z m399
-691 c37 -67 104 -128 179 -163 62 -30 75 -32 172 -32 97 0 110 2 172 32 76
36 142 97 178 167 l25 46 172 0 c96 0 174 -4 178 -9 3 -6 -4 -101 -15 -213
-11 -112 -23 -273 -26 -358 -6 -153 -6 -157 31 -320 32 -138 38 -184 38 -280
0 -151 -17 -217 -108 -410 -44 -93 -78 -179 -84 -215 -13 -71 -102 -1105 -181
-2105 -11 -140 -23 -290 -27 -334 -9 -109 -37 -145 -159 -206 -378 -191 -1338
-192 -1719 -2 -79 39 -122 78 -139 125 -9 25 -19 116 -26 227 -6 102 -31 441
-56 755 -24 314 -60 777 -79 1030 -19 253 -42 488 -50 523 -8 35 -41 119 -74
187 -94 194 -106 243 -106 415 0 128 4 159 30 265 28 112 30 132 29 295 -1 96
-11 273 -23 394 -11 120 -18 222 -15 227 3 5 352 8 832 7 l827 -3 24 -45z"/>
<path d="M705 4188 c-22 -68 -67 -329 -68 -398 -2 -117 13 -171 99 -350 41
-85 80 -184 89 -220 8 -36 24 -186 35 -335 19 -254 111 -1519 126 -1743 5 -82
12 -114 35 -162 48 -103 141 -175 291 -226 284 -97 904 -90 1177 12 87 33 151
75 205 135 77 86 75 73 136 844 109 1386 114 1450 131 1505 6 19 42 100 80
180 38 80 76 172 84 205 27 100 22 229 -14 385 -17 74 -34 145 -36 158 -5 21
-9 22 -115 22 -60 0 -111 -3 -114 -8 -2 -4 9 -59 26 -122 22 -83 32 -147 36
-228 6 -144 -8 -201 -94 -380 -37 -74 -71 -162 -79 -200 -8 -37 -26 -222 -40
-412 -13 -190 -34 -471 -45 -625 -36 -494 -79 -999 -88 -1031 -15 -48 -40 -92
-79 -135 -62 -68 -61 -125 -7 596 42 566 91 1261 99 1415 10 175 28 248 100
400 126 270 132 356 44 693 l-10 37 -830 0 -829 0 -10 -26 c-6 -14 -17 -70
-26 -123 -23 -139 -14 -237 31 -345 8 -17 4 -18 -43 -14 -61 6 -87 26 -114 85
-34 76 -34 163 -2 381 l7 42 -92 0 c-64 0 -93 -4 -96 -12z"/>
</g>
</svg>
