<?xml version="1.0" standalone="no"?>
<!DOCTYPE svg PUBLIC "-//W3C//DTD SVG 20010904//EN"
 "http://www.w3.org/TR/2001/REC-SVG-20010904/DTD/svg10.dtd">
<svg version="1.0" xmlns="http://www.w3.org/2000/svg"
 width="450.000000pt" height="443.000000pt" viewBox="0 0 450.000000 443.000000"
 preserveAspectRatio="xMidYMid meet">
<g transform="translate(0.000000,443.000000) scale(0.100000,-0.100000)"
fill="#000000" stroke="none">
<path d="M370 4122 c-53 -26 -67 -62 -81 -202 -32 -334 27 -594 181 -805 69
-96 217 -236 320 -304 160 -106 278 -157 672 -295 255 -90 348 -136 425 -211
52 -52 64 -71 82 -129 20 -66 21 -88 21 -621 0 -368 -4 -563 -11 -582 -25 -68
-63 -90 -297 -175 -197 -71 -291 -114 -350 -157 -53 -39 -87 -107 -78 -156 22
-117 157 -150 666 -165 512 -14 1005 8 1151 52 62 18 109 65 116 115 7 57 -10
95 -65 144 -59 52 -144 91 -372 174 -102 36 -204 77 -226 90 -77 45 -74 23
-74 654 0 547 1 562 22 626 49 151 157 218 583 365 312 108 453 169 585 255
280 181 453 418 512 705 18 83 19 120 14 295 -3 110 -10 217 -15 238 -12 49
-45 84 -90 97 -23 6 -679 10 -1846 10 -1703 0 -1812 -1 -1845 -18z m3645 -218
c4 -47 5 -149 3 -227 -4 -130 -8 -151 -40 -244 -50 -147 -121 -254 -244 -371
-168 -160 -323 -244 -679 -365 -520 -178 -647 -260 -727 -473 -22 -58 -23 -67
-26 -647 -3 -673 -4 -663 73 -746 60 -64 109 -89 330 -166 181 -64 325 -128
325 -145 0 -38 -610 -65 -1108 -50 -335 10 -502 27 -502 50 0 16 126 73 296
133 226 81 289 113 345 175 75 83 73 61 77 682 4 593 0 662 -43 758 -80 178
-195 252 -625 402 -291 102 -312 110 -430 169 -311 155 -507 372 -582 646 -19
70 -22 105 -22 275 0 108 3 204 7 213 6 16 119 17 1786 17 l1779 0 7 -86z"/>
<path d="M625 3643 c-13 -13 -16 -27 -11 -59 16 -117 86 -257 183 -363 134
-149 330 -257 693 -385 118 -41 265 -93 326 -115 151 -54 249 -71 409 -71 207
0 238 8 865 231 231 82 392 173 519 294 125 119 200 244 232 387 11 52 10 60
-6 78 -18 20 -30 20 -1606 20 -1474 0 -1589 -1 -1604 -17z"/>
</g>
</svg>
