<?xml version="1.0" standalone="no"?>
<!DOCTYPE svg PUBLIC "-//W3C//DTD SVG 20010904//EN"
 "http://www.w3.org/TR/2001/REC-SVG-20010904/DTD/svg10.dtd">
<svg version="1.0" xmlns="http://www.w3.org/2000/svg"
 width="276.000000pt" height="365.000000pt" viewBox="0 0 276.000000 365.000000"
 preserveAspectRatio="xMidYMid meet">
<g transform="translate(0.000000,365.000000) scale(0.100000,-0.100000)"
fill="#000000" stroke="none">
<path d="M357 3379 c-50 -8 -86 -35 -104 -77 -13 -32 -13 -48 1 -151 148
-1070 224 -1804 252 -2431 7 -169 13 -199 53 -262 93 -147 296 -198 791 -199
459 -1 647 35 759 143 78 76 89 113 101 353 30 603 130 1577 230 2247 42 275
39 316 -19 355 -24 17 -92 18 -1027 23 -551 3 -1017 2 -1037 -1z m1956 -149
c3 -3 -8 -93 -24 -200 -60 -407 -130 -1002 -169 -1425 -34 -381 -40 -465 -54
-748 -16 -306 -19 -319 -86 -365 -79 -53 -204 -72 -525 -79 -383 -8 -633 19
-722 80 -57 38 -70 82 -78 257 -24 590 -129 1618 -240 2362 -8 54 -15 102 -15
108 0 13 1900 23 1913 10z"/>
<path d="M662 2698 c-16 -16 -15 -60 2 -194 29 -216 106 -968 126 -1219 14
-175 24 -214 66 -264 68 -78 199 -118 429 -128 245 -11 459 26 544 95 74 59
80 83 106 385 26 297 24 277 90 879 34 314 43 423 35 438 -11 20 -20 20 -698
20 -522 0 -691 -3 -700 -12z"/>
</g>
</svg>
