<?xml version="1.0" standalone="no"?>
<!DOCTYPE svg PUBLIC "-//W3C//DTD SVG 20010904//EN"
 "http://www.w3.org/TR/2001/REC-SVG-20010904/DTD/svg10.dtd">
<svg version="1.0" xmlns="http://www.w3.org/2000/svg"
 width="402.000000pt" height="600.000000pt" viewBox="0 0 402.000000 600.000000"
 preserveAspectRatio="xMidYMid meet">
<g transform="translate(0.000000,600.000000) scale(0.100000,-0.100000)"
fill="#000000" stroke="none">
<path d="M890 5709 c-63 -25 -87 -64 -140 -232 -240 -756 -352 -1364 -321
-1733 42 -484 260 -861 645 -1115 49 -32 184 -106 300 -163 226 -112 285 -154
339 -247 58 -99 61 -126 61 -684 l1 -510 -25 -50 c-34 -69 -88 -99 -307 -170
-340 -110 -423 -167 -423 -292 0 -89 49 -133 185 -167 266 -68 1236 -71 1561
-6 111 22 154 41 194 86 55 64 36 163 -45 229 -54 45 -114 71 -336 145 -259
87 -310 118 -338 199 -18 54 -15 996 3 1082 20 90 58 162 120 225 45 44 88 69
277 162 282 139 383 205 525 347 206 206 320 419 384 720 31 145 38 431 16
625 -20 172 -54 358 -103 570 -75 326 -237 870 -275 923 -11 15 -37 36 -58 47
-38 20 -62 20 -1127 19 -698 0 -1097 -4 -1113 -10z m2193 -199 c44 -133 132
-440 177 -615 179 -691 206 -1129 93 -1480 -42 -129 -76 -201 -148 -311 -138
-208 -358 -381 -644 -505 -312 -135 -438 -278 -471 -532 -7 -53 -10 -262 -8
-582 4 -566 2 -553 83 -643 59 -65 125 -99 353 -176 252 -86 334 -128 305
-157 -15 -15 -146 -37 -303 -50 -192 -16 -844 -16 -1035 0 -155 13 -293 36
-309 51 -28 28 68 75 299 149 265 84 359 140 412 249 l28 57 3 547 c3 605 1
635 -60 758 -21 44 -56 90 -107 142 -73 72 -86 81 -281 177 -312 153 -458 256
-592 418 -132 160 -221 344 -262 548 -69 338 -36 681 129 1330 61 241 160 580
190 651 l14 34 1058 -2 1058 -3 18 -55z"/>
<path d="M771 4131 c-18 -32 -25 -286 -12 -398 29 -245 124 -471 270 -638 134
-154 307 -266 625 -404 324 -141 431 -132 853 69 184 88 293 160 403 266 237
229 342 501 341 884 0 86 -2 163 -5 171 -2 8 -7 26 -10 42 l-6 27 -1225 0
c-1192 0 -1225 0 -1234 -19z m224 -127 c18 -13 21 -31 26 -162 8 -206 50 -354
139 -493 17 -25 30 -55 30 -67 0 -29 -26 -52 -60 -52 -39 0 -72 42 -132 165
-67 139 -100 287 -102 458 -1 124 0 129 23 148 28 23 49 24 76 3z"/>
</g>
</svg>
